<svg width="60" height="60" viewBox="0 0 60 60" fill="none" xmlns="http://www.w3.org/2000/svg">
<circle cx="30" cy="30" r="30" fill="#272FE9"/>
<g clip-path="url(#clip0_12_31)">
<path d="M30 44C28.7623 44 27.5753 43.5083 26.7002 42.6332C25.825 41.758 25.3333 40.571 25.3333 39.3333V34.6667H20.6667C19.429 34.6667 18.242 34.175 17.3668 33.2998C16.4917 32.4247 16 31.2377 16 30C16 28.7623 16.4917 27.5753 17.3668 26.7002C18.242 25.825 19.429 25.3333 20.6667 25.3333H25.3333V20.6667C25.3333 19.429 25.825 18.242 26.7002 17.3668C27.5753 16.4917 28.7623 16 30 16C31.2377 16 32.4247 16.4917 33.2998 17.3668C34.175 18.242 34.6667 19.429 34.6667 20.6667V25.3333H39.3333C40.571 25.3333 41.758 25.825 42.6332 26.7002C43.5083 27.5753 44 28.7623 44 30C44 31.2377 43.5083 32.4247 42.6332 33.2998C41.758 34.175 40.571 34.6667 39.3333 34.6667H34.6667V39.3333C34.6667 40.571 34.175 41.758 33.2998 42.6332C32.4247 43.5083 31.2377 44 30 44ZM20.6667 27.6667C20.0478 27.6667 19.4543 27.9125 19.0168 28.3501C18.5792 28.7877 18.3333 29.3812 18.3333 30C18.3333 30.6188 18.5792 31.2123 19.0168 31.6499C19.4543 32.0875 20.0478 32.3333 20.6667 32.3333H26.5C26.8094 32.3333 27.1062 32.4562 27.325 32.675C27.5437 32.8938 27.6667 33.1906 27.6667 33.5V39.3333C27.6667 39.9522 27.9125 40.5457 28.3501 40.9832C28.7877 41.4208 29.3812 41.6667 30 41.6667C30.6188 41.6667 31.2123 41.4208 31.6499 40.9832C32.0875 40.5457 32.3333 39.9522 32.3333 39.3333V33.5C32.3333 33.1906 32.4562 32.8938 32.675 32.675C32.8938 32.4562 33.1906 32.3333 33.5 32.3333H39.3333C39.9522 32.3333 40.5457 32.0875 40.9832 31.6499C41.4208 31.2123 41.6667 30.6188 41.6667 30C41.6667 29.3812 41.4208 28.7877 40.9832 28.3501C40.5457 27.9125 39.9522 27.6667 39.3333 27.6667H33.5C33.1906 27.6667 32.8938 27.5437 32.675 27.325C32.4562 27.1062 32.3333 26.8094 32.3333 26.5V20.6667C32.3333 20.0478 32.0875 19.4543 31.6499 19.0168C31.2123 18.5792 30.6188 18.3333 30 18.3333C29.3812 18.3333 28.7877 18.5792 28.3501 19.0168C27.9125 19.4543 27.6667 20.0478 27.6667 20.6667V26.5C27.6667 26.8094 27.5437 27.1062 27.325 27.325C27.1062 27.5437 26.8094 27.6667 26.5 27.6667H20.6667Z" fill="#F5F5F5"/>
</g>
<defs>
<clipPath id="clip0_12_31">
<rect width="28" height="28" fill="white" transform="translate(16 16)"/>
</clipPath>
</defs>
</svg>
