<svg width="100" height="40" viewBox="0 0 100 40" fill="none" xmlns="http://www.w3.org/2000/svg">
<path d="M0 8C0 3.58172 3.58172 0 8 0H73.132C75.0062 0 76.8427 0.526694 78.432 1.52002L100 15V40H8C3.58172 40 0 36.4183 0 32V8Z" fill="#696A79"/>
<g clip-path="url(#clip0_12_30)">
<path d="M54.9999 12H51.8999C51.6678 10.8714 51.0537 9.85735 50.1612 9.12872C49.2686 8.40009 48.1521 8.00145 46.9999 8L44.9999 8C43.8477 8.00145 42.7312 8.40009 41.8387 9.12872C40.9461 9.85735 40.332 10.8714 40.0999 12H36.9999C36.7347 12 36.4803 12.1054 36.2928 12.2929C36.1053 12.4804 35.9999 12.7348 35.9999 13C35.9999 13.2652 36.1053 13.5196 36.2928 13.7071C36.4803 13.8946 36.7347 14 36.9999 14H37.9999V27C38.0015 28.3256 38.5288 29.5964 39.4661 30.5338C40.4035 31.4711 41.6743 31.9984 42.9999 32H48.9999C50.3255 31.9984 51.5964 31.4711 52.5337 30.5338C53.471 29.5964 53.9983 28.3256 53.9999 27V14H54.9999C55.2651 14 55.5195 13.8946 55.707 13.7071C55.8946 13.5196 55.9999 13.2652 55.9999 13C55.9999 12.7348 55.8946 12.4804 55.707 12.2929C55.5195 12.1054 55.2651 12 54.9999 12V12ZM44.9999 10H46.9999C47.6202 10.0008 48.225 10.1934 48.7315 10.5514C49.238 10.9095 49.6213 11.4155 49.8289 12H42.1709C42.3785 11.4155 42.7618 10.9095 43.2683 10.5514C43.7748 10.1934 44.3796 10.0008 44.9999 10V10ZM51.9999 27C51.9999 27.7956 51.6838 28.5587 51.1212 29.1213C50.5586 29.6839 49.7956 30 48.9999 30H42.9999C42.2043 30 41.4412 29.6839 40.8786 29.1213C40.316 28.5587 39.9999 27.7956 39.9999 27V14H51.9999V27Z" fill="#F5F5F5"/>
<path d="M44 25.9994C44.2652 25.9994 44.5196 25.894 44.7071 25.7065C44.8946 25.5189 45 25.2646 45 24.9994V18.9994C45 18.7342 44.8946 18.4798 44.7071 18.2923C44.5196 18.1047 44.2652 17.9994 44 17.9994C43.7348 17.9994 43.4804 18.1047 43.2929 18.2923C43.1054 18.4798 43 18.7342 43 18.9994V24.9994C43 25.2646 43.1054 25.5189 43.2929 25.7065C43.4804 25.894 43.7348 25.9994 44 25.9994Z" fill="#F5F5F5"/>
<path d="M47.9999 25.9994C48.2651 25.9994 48.5194 25.894 48.707 25.7065C48.8945 25.5189 48.9999 25.2646 48.9999 24.9994V18.9994C48.9999 18.7342 48.8945 18.4798 48.707 18.2923C48.5194 18.1047 48.2651 17.9994 47.9999 17.9994C47.7346 17.9994 47.4803 18.1047 47.2928 18.2923C47.1052 18.4798 46.9999 18.7342 46.9999 18.9994V24.9994C46.9999 25.2646 47.1052 25.5189 47.2928 25.7065C47.4803 25.894 47.7346 25.9994 47.9999 25.9994Z" fill="#F5F5F5"/>
</g>
<defs>
<clipPath id="clip0_12_30">
<rect width="24" height="24" fill="white" transform="translate(34 8)"/>
</clipPath>
</defs>
</svg>
