<svg width="100" height="40" viewBox="0 0 100 40" fill="none" xmlns="http://www.w3.org/2000/svg">
<path d="M100 8C100 3.58172 96.4183 0 92 0H26.868C24.9938 0 23.1573 0.526694 21.568 1.52002L0 15V40H92C96.4183 40 100 36.4183 100 32V8Z" fill="#272FE9"/>
<g clip-path="url(#clip0_12_28)">
<path d="M64.8532 9.14801C64.1733 8.46921 63.2519 8.08795 62.2912 8.08795C61.3304 8.08795 60.409 8.46921 59.7292 9.14801L43.4652 25.412C42.9994 25.8751 42.6301 26.426 42.3787 27.0328C42.1272 27.6396 41.9985 28.2902 42.0002 28.947V31C42.0002 31.2652 42.1055 31.5196 42.293 31.7071C42.4806 31.8947 42.7349 32 43.0002 32H45.0532C45.7099 32.0019 46.3605 31.8734 46.9673 31.6221C47.5741 31.3708 48.125 31.0017 48.5882 30.536L64.8532 14.271C65.5317 13.5912 65.9127 12.67 65.9127 11.7095C65.9127 10.749 65.5317 9.82782 64.8532 9.14801V9.14801ZM47.1742 29.122C46.6102 29.6823 45.8481 29.9977 45.0532 30H44.0002V28.947C43.9991 28.5529 44.0763 28.1625 44.2272 27.7985C44.3781 27.4344 44.5997 27.1039 44.8792 26.826L57.2222 14.483L59.5222 16.783L47.1742 29.122ZM63.4382 12.857L60.9322 15.364L58.6322 13.069L61.1392 10.562C61.2902 10.4113 61.4694 10.2919 61.6666 10.2104C61.8638 10.129 62.0751 10.0872 62.2884 10.0874C62.5018 10.0877 62.713 10.1299 62.91 10.2118C63.107 10.2936 63.286 10.4135 63.4367 10.5645C63.5873 10.7155 63.7068 10.8948 63.7882 11.0919C63.8697 11.2891 63.9115 11.5004 63.9112 11.7138C63.911 11.9271 63.8687 12.1383 63.7869 12.3353C63.705 12.5324 63.5852 12.7113 63.4342 12.862L63.4382 12.857Z" fill="#F5F5F5"/>
</g>
<defs>
<clipPath id="clip0_12_28">
<rect width="24" height="24" fill="white" transform="translate(42 8)"/>
</clipPath>
</defs>
</svg>
